<?xml version="1.0" encoding="utf-8"?>
<!-- Generator: Adobe Illustrator 16.0.0, SVG Export Plug-In . SVG Version: 6.00 Build 0)  -->
<!DOCTYPE svg PUBLIC "-//W3C//DTD SVG 1.1//EN" "http://www.w3.org/Graphics/SVG/1.1/DTD/svg11.dtd">
<svg version="1.1" id="Layer_1" xmlns="http://www.w3.org/2000/svg" xmlns:xlink="http://www.w3.org/1999/xlink" x="0px" y="0px"
	 width="32px" height="32px" viewBox="0 0 32 32" enable-background="new 0 0 32 32" xml:space="preserve">
<rect x="-14" y="-6.748" fill="#FFFFFF" width="59" height="48"/>
<g>
	<path fill="#F37D20" d="M6.699,28.709l0.497-4.425c1.763,1.354,4.717,2.786,8.357,2.786c3.301,0,6.403-1.152,6.403-4.294
		c0-3.141-3.066-4.336-6.937-5.608c-4.45-1.479-8.745-2.825-8.745-7.604c0-3.461,2.301-8.032,9.657-8.032
		c3.492,0,6.907,1.027,8.444,1.906L23.989,7.46c-2.604-1.357-5.025-2.511-7.708-2.511c-2.758,0-6.016,1.19-6.016,4.102
		c0,2.583,2.569,3.619,5.79,4.656c4.713,1.51,9.886,2.985,9.886,9.028c0,2.943-1.182,7.763-10.466,7.763
		C11.531,30.497,8.347,29.618,6.699,28.709z"/>
	<path fill="#F37D20" d="M15.475,31.02c-4.178,0-7.383-0.955-8.993-1.847c-0.185-0.1-0.288-0.312-0.264-0.532l0.505-4.417
		c0.021-0.186,0.127-0.339,0.28-0.414c0.151-0.073,0.328-0.06,0.468,0.043c1.06,0.812,3.953,2.697,8.081,2.697
		c1.395,0,5.931-0.271,5.931-3.773c0-2.727-2.741-3.831-6.603-5.107l-0.194-0.062c-4.372-1.453-8.888-2.944-8.888-8.042
		C5.799,5.616,8.454,1,15.932,1c3.427,0,6.953,0.997,8.662,1.97c0.176,0.104,0.279,0.307,0.256,0.522l-0.384,4.021
		c-0.012,0.167-0.106,0.32-0.238,0.401c-0.14,0.081-0.3,0.094-0.439,0.014c-2.588-1.34-4.948-2.453-7.507-2.453
		c-2.664,0-5.539,1.113-5.539,3.575c0,2.028,1.837,2.988,5.443,4.146l0.408,0.131c4.606,1.474,9.833,3.143,9.833,9.412
		C26.427,26.516,24.528,31.02,15.475,31.02z M7.212,28.393c1.598,0.788,4.507,1.577,8.262,1.577c6.629,0,9.99-2.436,9.99-7.235
		c0-5.477-4.643-6.964-9.135-8.401l-0.41-0.126c-3.362-1.077-6.136-2.208-6.136-5.156c0-3.178,3.374-4.621,6.497-4.621
		c2.552,0,4.84,0.982,7.305,2.24l0.281-2.92c-1.458-0.73-4.528-1.696-7.936-1.696c-6.776,0-9.176,4.043-9.176,7.515
		c0,4.317,3.801,5.575,8.206,7.026l0.198,0.067c3.414,1.118,7.272,2.389,7.272,6.113c0,3.014-2.572,4.822-6.88,4.822
		c-3.726,0-6.516-1.446-7.979-2.412L7.212,28.393z"/>
</g>
</svg>
