<?xml version="1.0" encoding="utf-8"?>
<!-- Generator: Adobe Illustrator 16.0.0, SVG Export Plug-In . SVG Version: 6.00 Build 0)  -->
<!DOCTYPE svg PUBLIC "-//W3C//DTD SVG 1.1//EN" "http://www.w3.org/Graphics/SVG/1.1/DTD/svg11.dtd">
<svg version="1.1" id="Layer_1" xmlns="http://www.w3.org/2000/svg" xmlns:xlink="http://www.w3.org/1999/xlink" x="0px" y="0px"
	 width="932.182px" height="282.776px" viewBox="0 0 932.182 282.776" enable-background="new 0 0 932.182 282.776"
	 xml:space="preserve">
<g>
	<g>
		<path fill="#585858" d="M4.736,133.14l2.629-21.25c9.282,6.505,24.863,13.404,44.047,13.404c17.4,0,33.761-5.559,33.761-20.646
			c0-15.104-16.166-20.852-36.566-26.959C25.138,70.583,2.518,64.106,2.518,41.16c0-16.638,12.129-38.611,50.907-38.611
			c18.414,0,36.406,4.941,44.499,9.161l-2.028,19.332C82.151,24.522,69.4,18.978,55.259,18.978c-14.54,0-31.723,5.723-31.723,19.704
			c0,12.419,13.54,17.386,30.519,22.371c24.861,7.271,52.137,14.348,52.137,43.401c0,14.145-6.256,37.284-55.178,37.284
			C30.204,141.738,13.418,137.521,4.736,133.14z"/>
		<path fill="#585858" d="M51.014,144.258c-22.042,0-38.937-4.589-47.416-8.872c-0.969-0.493-1.519-1.506-1.382-2.562l2.657-21.224
			c0.107-0.89,0.658-1.627,1.479-1.998c0.794-0.341,1.726-0.273,2.467,0.219c5.585,3.89,20.835,12.939,42.594,12.939
			c7.354,0,31.256-1.3,31.256-18.113c0-13.117-14.431-18.428-34.805-24.551l-1.014-0.314C23.808,72.829,0,65.651,0,41.16
			C0,22.184,13.993,0,53.425,0C71.47,0,90.062,4.782,99.07,9.463c0.931,0.493,1.481,1.478,1.357,2.52l-2.012,19.305
			c-0.082,0.808-0.576,1.548-1.262,1.945c-0.738,0.382-1.588,0.438-2.328,0.066c-13.635-6.447-26.068-11.802-39.567-11.802
			c-14.047,0-29.19,5.367-29.19,17.185c0,9.747,9.667,14.36,28.697,19.935l2.136,0.629c24.29,7.08,51.835,15.088,51.835,45.209
			C108.736,122.611,98.731,144.258,51.014,144.258z M7.447,131.633c8.434,3.794,23.755,7.572,43.566,7.572
			c34.941,0,52.644-11.693,52.644-34.751c0-26.327-24.466-33.475-48.15-40.376l-2.165-0.616c-17.702-5.174-32.34-10.623-32.34-24.78
			c0-15.269,17.801-22.209,34.257-22.209c13.446,0,25.521,4.726,38.5,10.763l1.478-14.022c-7.691-3.518-23.862-8.16-41.812-8.16
			c-35.733,0-48.387,19.444-48.387,36.107c0,20.757,20.045,26.795,43.265,33.789l1.04,0.314c17.991,5.38,38.339,11.49,38.339,29.384
			c0,14.484-13.558,23.166-36.27,23.166c-19.646,0-34.352-6.953-42.047-11.583L7.447,131.633z"/>
	</g>
	<g>
		<rect x="143.828" y="5.205" fill="#585858" width="19.211" height="133.851"/>
		<path fill="#585858" d="M163.039,141.56h-19.211c-1.381,0-2.503-1.121-2.503-2.504V5.205c0-1.411,1.122-2.507,2.503-2.507h19.211
			c1.398,0,2.521,1.096,2.521,2.507v133.851C165.56,140.438,164.438,141.56,163.039,141.56z M146.335,136.533h14.187V7.737h-14.187
			V136.533z"/>
	</g>
	<g>
		<polygon fill="#585858" points="223.281,139.056 178.579,68.117 223.281,5.205 243.463,5.205 198.79,68.117 243.463,139.056 		"/>
		<path fill="#585858" d="M243.574,141.56h-0.111h-20.182c-0.874,0-1.668-0.438-2.137-1.179l-44.689-70.923
			c-0.545-0.861-0.545-1.97,0.084-2.818l44.677-62.887c0.492-0.671,1.217-1.055,2.065-1.055h20.182c0.96,0,1.81,0.508,2.248,1.344
			c0.439,0.849,0.355,1.859-0.195,2.615L201.842,68.2l43.459,69.006c0.492,0.465,0.808,1.109,0.808,1.85
			C246.108,140.438,244.97,141.56,243.574,141.56z M224.664,136.533h14.252l-42.25-67.075c-0.546-0.861-0.546-1.97,0.082-2.818
			l41.813-58.902h-13.993L181.633,68.2L224.664,136.533z"/>
	</g>
	<g>
		<path fill="#585858" d="M326.793,77.291v61.765h-20.021V77.291L258.88,5.205h20.21l37.568,55.654l37.599-55.654h20.223
			L326.793,77.291z"/>
		<path fill="#585858" d="M326.793,141.56h-20.021c-1.396,0-2.528-1.121-2.528-2.504V78.057l-47.501-71.44
			c-0.493-0.798-0.534-1.783-0.079-2.59c0.434-0.82,1.271-1.328,2.216-1.328h20.21c0.82,0,1.614,0.412,2.053,1.096l35.516,52.547
			l35.516-52.547c0.468-0.684,1.234-1.096,2.083-1.096h20.223c0.944,0,1.792,0.508,2.248,1.328c0.423,0.807,0.393,1.792-0.154,2.59
			l-47.263,71.44v60.999C329.311,140.438,328.176,141.56,326.793,141.56z M309.294,136.533h14.978V77.291
			c0-0.492,0.165-0.985,0.41-1.382l45.104-68.172h-14.188L318.77,62.258c-0.96,1.41-3.262,1.41-4.189,0L277.72,7.737h-14.143
			l45.278,68.172c0.302,0.396,0.438,0.89,0.438,1.382V136.533z"/>
	</g>
	<g>
		<path fill="#585858" d="M499.99,46.884c0,38.539-38.446,48.082-59.121,45.343V75.935c19.606,0,39.146-5.352,39.146-28.285
			c0-19.101-8.063-26.152-32.957-26.152h-21.44v117.559h-20.153V5.179h45.236C476.99,5.179,499.99,10.94,499.99,46.884z"/>
		<path fill="#585858" d="M425.618,141.56h-20.153c-1.424,0-2.55-1.121-2.55-2.504V5.179c0-1.385,1.126-2.507,2.55-2.507h45.236
			c25.63,0,51.835,5.243,51.835,44.212c0,33.2-28.366,48.301-54.712,48.301c-2.546,0-5.008-0.149-7.27-0.451
			c-1.271-0.162-2.219-1.23-2.219-2.507V75.935c0-1.383,1.139-2.504,2.533-2.504c24.619,0,36.613-8.435,36.613-25.781
			c0-15.679-4.683-23.646-30.424-23.646h-18.924v115.052C428.135,140.438,427.03,141.56,425.618,141.56z M407.982,136.522h15.114
			V21.497c0-1.41,1.151-2.52,2.521-2.52h21.44c25.878,0,35.49,7.766,35.49,28.672c0,13.703-6.901,29.984-39.134,30.779v11.525
			c1.425,0.124,2.907,0.209,4.409,0.209c18.459,0,49.662-9.122,49.662-43.279c0-32.505-18.689-39.159-46.785-39.159h-42.719V136.522
			z"/>
	</g>
	<g>
		<path fill="#585858" d="M527.951,72.117c0-42.446,29.301-69.568,69.742-69.568c40.422,0,69.748,27.122,69.748,69.568
			c0,42.471-29.326,69.621-69.748,69.621C557.252,141.738,527.951,114.588,527.951,72.117z M548.951,72.117
			c0,29.655,16.403,53.177,48.742,53.177c32.34,0,48.688-23.521,48.688-53.177c0-29.631-16.348-53.14-48.688-53.14
			C565.354,18.978,548.951,42.486,548.951,72.117z"/>
		<path fill="#585858" d="M597.693,144.258c-42.541,0-72.264-29.657-72.264-72.141C525.43,29.671,555.152,0,597.693,0
			c42.528,0,72.265,29.671,72.265,72.117C669.958,114.601,640.222,144.258,597.693,144.258z M597.693,5.053
			c-40.227,0-67.227,26.975-67.227,67.064c0,40.113,27,67.088,67.227,67.088c40.202,0,67.201-26.975,67.201-67.088
			C664.895,32.027,637.896,5.053,597.693,5.053z M597.693,127.813c-31.135,0-51.258-21.851-51.258-55.696
			c0-33.819,20.123-55.645,51.258-55.645c31.111,0,51.21,21.825,51.21,55.645C648.903,105.963,628.805,127.813,597.693,127.813z
			 M597.693,21.497c-34.062,0-46.195,26.165-46.195,50.62c0,24.494,12.134,50.644,46.195,50.644
			c34.066,0,46.185-26.149,46.185-50.644C643.878,47.662,631.76,21.497,597.693,21.497z"/>
	</g>
	<g>
		<path fill="#585858" d="M767.389,79.7c16.816-4.106,34.066-18.841,34.066-35.282c0-30.026-19.416-39.213-48.895-39.213h-45.877
			v133.851h20.205V19.952h25.469c19.18,0,29.082,8.965,29.082,24.466c0,22.605-39.134,24.837-39.134,24.837l39.627,69.801h20.632
			L767.389,79.7z"/>
		<path fill="#585858" d="M802.564,141.56h-20.632c-0.878,0-1.727-0.492-2.165-1.273l-39.623-69.771
			c-0.438-0.769-0.438-1.699-0.059-2.466c0.44-0.766,1.21-1.261,2.083-1.3c0.386-0.03,36.761-2.37,36.761-22.332
			c0-18.142-14.442-21.962-26.572-21.962h-22.964v116.6c0,1.383-1.134,2.504-2.505,2.504h-20.205c-1.412,0-2.551-1.121-2.551-2.504
			V5.205c0-1.411,1.139-2.507,2.551-2.507h45.877c22.085,0,51.412,4.299,51.412,41.72c0,16.756-16.415,31.545-32.723,36.816
			l33.516,56.534c0.44,0.766,0.44,1.751,0,2.546C804.304,141.067,803.479,141.56,802.564,141.56z M783.41,136.533h14.746
			l-32.929-55.544c-0.384-0.686-0.438-1.534-0.137-2.274c0.314-0.737,0.957-1.271,1.723-1.478
			c15.475-3.766,32.12-17.389,32.12-32.819c0-25.384-14.294-36.681-46.373-36.681h-43.373v128.796h15.185V19.952
			c0-1.413,1.122-2.548,2.517-2.548h25.469c20.098,0,31.599,9.857,31.599,27.014c0,20.385-27.106,25.698-37.515,26.987
			L783.41,136.533z"/>
	</g>
	<g>
		<path fill="#585858" d="M888.396,21.649v117.406h-19.196V21.649h-41.225V5.205h101.662v16.444H888.396z"/>
		<path fill="#585858" d="M888.396,141.56h-19.196c-1.396,0-2.547-1.121-2.547-2.504V24.182h-38.678
			c-1.412,0-2.533-1.137-2.533-2.532V5.205c0-1.411,1.121-2.507,2.533-2.507h101.662c1.395,0,2.545,1.096,2.545,2.507v16.444
			c0,1.396-1.15,2.532-2.545,2.532h-38.721v114.874C890.916,140.438,889.795,141.56,888.396,141.56z M871.748,136.533h14.131V21.649
			c0-1.385,1.151-2.52,2.517-2.52h38.694V7.737h-96.61V19.13h38.72c1.412,0,2.549,1.135,2.549,2.52V136.533z"/>
	</g>
</g>
<g>
	<path fill="#F37D20" d="M68.511,257.79c0,16.592-11.856,24.986-35.268,24.986c-13.28,0-23.635-2.724-29.177-5.421l1.353-11.586
		c5.038,3.289,14.899,8.367,28.151,8.367c14.978,0,23.933-6.092,23.933-16.169c0-12.503-13.483-16.787-25.381-20.609l-0.659-0.219
		c-15.582-5.021-28.945-9.321-28.945-24.329c0-11.965,8.462-25.943,32.424-25.943c12.033,0,22.917,3.353,28.014,5.845l-1.098,10.568
		c-8.681-4.297-16.787-7.722-25.726-7.722c-10.94,0-22.631,4.862-22.631,15.487c0,9.829,9.665,13.649,21.357,17.293l1.424,0.493
		C52.108,233.72,68.511,238.867,68.511,257.79z"/>
</g>
<g>
	<path fill="#F37D20" d="M214.191,188.771l-30.396,48.962c-0.082,0.22-0.166,0.464-0.166,0.766v42.388h-10.377v-42.388
		c0-0.302-0.054-0.546-0.19-0.766l-30.506-48.962h9.968l24.619,38.857c0.519,0.835,1.971,0.835,2.493,0l24.573-38.857H214.191z"/>
</g>
<g>
	<path fill="#F37D20" d="M354.257,257.79c0,16.592-11.886,24.986-35.243,24.986c-13.363,0-23.712-2.724-29.242-5.421l1.393-11.586
		c4.957,3.289,14.896,8.367,28.1,8.367c14.977,0,23.918-6.092,23.918-16.169c0-12.503-13.487-16.787-25.372-20.609l-0.658-0.219
		c-15.5-5.021-28.942-9.321-28.942-24.329c0-11.965,8.463-25.943,32.42-25.943c12.051,0,22.922,3.353,27.988,5.845l-1.014,10.568
		c-8.709-4.297-16.758-7.722-25.795-7.722c-10.912,0-22.62,4.862-22.62,15.487c0,9.829,9.667,13.649,21.386,17.293l1.438,0.493
		C337.825,233.72,354.257,238.867,354.257,257.79z"/>
</g>
<g>
	<path fill="#F37D20" d="M492.982,188.771v8.718h-25.962c-0.832,0-1.532,0.66-1.532,1.495v81.902h-9.749v-81.902
		c0-0.835-0.682-1.495-1.532-1.495h-25.96v-8.718H492.982z"/>
</g>
<g>
	<path fill="#F37D20" d="M578.282,272.233c-0.771,0-1.481-0.74-1.481-1.507v-71.743c0-0.835,0.711-1.495,1.481-1.495h43.208v-8.718
		h-54.506v92.115h55.727v-8.652H578.282z"/>
	<rect x="582.264" y="228.298" fill="#F37D20" width="30.068" height="8.691"/>
</g>
<g>
	<path fill="#F37D20" d="M789.598,280.886h-10.377l-8.711-70.566c-0.137-0.655-0.6-1.205-1.23-1.248
		c-0.629-0.179-1.285,0.167-1.588,0.755l-24.288,46.812l-24.704-46.853c-0.379-0.547-0.956-0.893-1.626-0.714
		c-0.645,0.043-1.138,0.593-1.192,1.248l-8.705,70.566h-10.463l12.226-92.115h8.723l24.288,46.334
		c0.303,0.533,0.795,0.83,1.316,0.83c0.63,0,1.093-0.297,1.366-0.83l24.099-46.334h8.764L789.598,280.886z"/>
</g>
<g>
	<path fill="#F37D20" d="M929.664,257.79c0,16.592-11.83,24.986-35.241,24.986c-13.363,0-23.634-2.724-29.194-5.421l1.316-11.586
		c5.011,3.289,14.925,8.367,28.121,8.367c15.037,0,24.005-6.092,24.005-16.169c0-12.503-13.518-16.787-25.428-20.609l-0.671-0.219
		c-15.512-5.021-28.958-9.321-28.958-24.329c0-11.965,8.475-25.943,32.423-25.943c12.034,0,22.977,3.353,28.014,5.845l-1.042,10.568
		c-8.706-4.297-16.759-7.722-25.778-7.722c-10.872,0-22.633,4.862-22.633,15.487c0,9.829,9.666,13.649,21.398,17.293l1.437,0.493
		C913.288,233.72,929.664,238.867,929.664,257.79z"/>
</g>
</svg>
