<?xml version="1.0" encoding="utf-8"?>
<!-- Generator: Adobe Illustrator 16.0.0, SVG Export Plug-In . SVG Version: 6.00 Build 0)  -->
<!DOCTYPE svg PUBLIC "-//W3C//DTD SVG 1.1//EN" "http://www.w3.org/Graphics/SVG/1.1/DTD/svg11.dtd">
<svg version="1.1" id="Layer_1" xmlns="http://www.w3.org/2000/svg" xmlns:xlink="http://www.w3.org/1999/xlink" x="0px" y="0px"
	 width="932.182px" height="144.258px" viewBox="0 0 932.182 144.258" enable-background="new 0 0 932.182 144.258"
	 xml:space="preserve">
<g>
	<g>
		<path fill="#5D5D5D" d="M4.736,133.141l2.629-21.25c9.282,6.504,24.863,13.403,44.047,13.403c17.4,0,33.761-5.56,33.761-20.646
			c0-15.104-16.166-20.853-36.566-26.959C25.138,70.583,2.518,64.105,2.518,41.16c0-16.639,12.129-38.611,50.907-38.611
			c18.414,0,36.406,4.941,44.499,9.161l-2.028,19.332C82.151,24.521,69.4,18.978,55.259,18.978c-14.54,0-31.723,5.724-31.723,19.704
			c0,12.419,13.54,17.386,30.519,22.371c24.861,7.271,52.137,14.348,52.137,43.401c0,14.146-6.256,37.284-55.178,37.284
			C30.204,141.738,13.418,137.521,4.736,133.141z"/>
		<path fill="#5D5D5D" d="M51.014,144.258c-22.042,0-38.937-4.589-47.416-8.872c-0.969-0.493-1.519-1.506-1.382-2.562L4.873,111.6
			c0.107-0.89,0.658-1.627,1.479-1.998c0.794-0.341,1.726-0.271,2.467,0.221c5.585,3.89,20.835,12.938,42.594,12.938
			c7.354,0,31.256-1.3,31.256-18.113c0-13.115-14.431-18.428-34.805-24.551l-1.014-0.312C23.808,72.829,0,65.65,0,41.16
			C0,22.184,13.993,0,53.425,0C71.47,0,90.062,4.782,99.07,9.463c0.931,0.493,1.481,1.478,1.357,2.52l-2.012,19.306
			c-0.082,0.808-0.576,1.548-1.262,1.944c-0.738,0.383-1.588,0.438-2.328,0.066C81.19,26.852,68.757,21.497,55.258,21.497
			c-14.047,0-29.19,5.367-29.19,17.185c0,9.747,9.667,14.36,28.697,19.936l2.136,0.629c24.29,7.08,51.835,15.088,51.835,45.209
			C108.736,122.609,98.731,144.258,51.014,144.258z M7.447,131.633c8.434,3.794,23.755,7.572,43.566,7.572
			c34.941,0,52.644-11.693,52.644-34.751c0-26.327-24.466-33.476-48.15-40.376l-2.165-0.616c-17.702-5.174-32.34-10.623-32.34-24.78
			c0-15.269,17.801-22.209,34.257-22.209c13.446,0,25.521,4.727,38.5,10.763l1.478-14.021c-7.691-3.518-23.862-8.16-41.812-8.16
			c-35.733,0-48.387,19.444-48.387,36.107c0,20.757,20.045,26.795,43.265,33.789l1.04,0.312
			c17.991,5.381,38.339,11.49,38.339,29.385c0,14.483-13.558,23.166-36.27,23.166c-19.646,0-34.352-6.953-42.047-11.584
			L7.447,131.633z"/>
	</g>
	<g>
		<rect x="143.828" y="5.205" fill="#5D5D5D" width="19.211" height="133.852"/>
		<path fill="#5D5D5D" d="M163.039,141.561h-19.211c-1.381,0-2.503-1.121-2.503-2.504V5.205c0-1.411,1.122-2.507,2.503-2.507h19.211
			c1.398,0,2.521,1.096,2.521,2.507v133.852C165.56,140.438,164.438,141.561,163.039,141.561z M146.335,136.533h14.187V7.737
			h-14.187V136.533z"/>
	</g>
	<g>
		<polygon fill="#5D5D5D" points="223.281,139.057 178.579,68.117 223.281,5.205 243.463,5.205 198.79,68.117 243.463,139.057 		"/>
		<path fill="#5D5D5D" d="M243.574,141.561h-0.111h-20.182c-0.874,0-1.668-0.438-2.137-1.18l-44.689-70.923
			c-0.545-0.861-0.545-1.97,0.084-2.818l44.677-62.887c0.492-0.671,1.217-1.055,2.065-1.055h20.182c0.96,0,1.81,0.508,2.248,1.344
			c0.439,0.849,0.355,1.858-0.195,2.615L201.842,68.2l43.459,69.006c0.492,0.465,0.808,1.108,0.808,1.851
			C246.108,140.438,244.97,141.561,243.574,141.561z M224.664,136.533h14.252l-42.25-67.075c-0.546-0.861-0.546-1.97,0.082-2.818
			l41.813-58.901h-13.993L181.633,68.2L224.664,136.533z"/>
	</g>
	<g>
		<path fill="#5D5D5D" d="M326.793,77.291v61.766h-20.021V77.291L258.88,5.205h20.21l37.568,55.653l37.599-55.653h20.224
			L326.793,77.291z"/>
		<path fill="#5D5D5D" d="M326.793,141.561h-20.021c-1.396,0-2.528-1.121-2.528-2.504v-61L256.743,6.617
			c-0.493-0.799-0.534-1.783-0.079-2.591c0.434-0.819,1.271-1.327,2.216-1.327h20.21c0.82,0,1.614,0.411,2.053,1.096l35.516,52.547
			l35.516-52.547c0.468-0.685,1.234-1.096,2.083-1.096h20.223c0.944,0,1.794,0.508,2.248,1.327c0.425,0.808,0.395,1.792-0.152,2.591
			l-47.265,71.439v60.998C329.311,140.438,328.176,141.561,326.793,141.561z M309.294,136.533h14.979V77.291
			c0-0.492,0.165-0.984,0.408-1.382l45.104-68.172h-14.188L318.77,62.258c-0.96,1.41-3.262,1.41-4.188,0L277.72,7.737h-14.143
			l45.278,68.172c0.302,0.396,0.438,0.89,0.438,1.382L309.294,136.533L309.294,136.533z"/>
	</g>
	<g>
		<path fill="#5D5D5D" d="M499.99,46.884c0,38.539-38.446,48.082-59.121,45.343V75.936c19.604,0,39.146-5.353,39.146-28.286
			c0-19.101-8.062-26.151-32.957-26.151h-21.438v117.56h-20.153V5.179h45.236C476.99,5.179,499.99,10.939,499.99,46.884z"/>
		<path fill="#5D5D5D" d="M425.618,141.561h-20.153c-1.424,0-2.55-1.121-2.55-2.504V5.179c0-1.385,1.126-2.507,2.55-2.507h45.236
			c25.63,0,51.835,5.243,51.835,44.212c0,33.2-28.366,48.302-54.712,48.302c-2.546,0-5.008-0.148-7.271-0.451
			c-1.271-0.161-2.219-1.229-2.219-2.508V75.936c0-1.384,1.139-2.504,2.533-2.504c24.619,0,36.613-8.436,36.613-25.782
			c0-15.679-4.685-23.646-30.426-23.646h-18.924v115.053C428.135,140.438,427.03,141.561,425.618,141.561z M407.982,136.521h15.112
			V21.497c0-1.41,1.151-2.521,2.521-2.521h21.438c25.878,0,35.49,7.767,35.49,28.672c0,13.703-6.9,29.984-39.134,30.779v11.525
			c1.425,0.124,2.907,0.209,4.409,0.209c18.459,0,49.662-9.122,49.662-43.279c0-32.505-18.689-39.159-46.785-39.159H407.98v128.798
			H407.982z"/>
	</g>
	<g>
		<path fill="#5D5D5D" d="M527.951,72.117c0-42.446,29.301-69.568,69.742-69.568c40.422,0,69.748,27.122,69.748,69.568
			c0,42.471-29.326,69.621-69.748,69.621C557.252,141.738,527.951,114.588,527.951,72.117z M548.951,72.117
			c0,29.654,16.401,53.177,48.742,53.177c32.34,0,48.688-23.521,48.688-53.177c0-29.632-16.348-53.141-48.688-53.141
			C565.354,18.978,548.951,42.485,548.951,72.117z"/>
		<path fill="#5D5D5D" d="M597.693,144.258c-42.541,0-72.266-29.656-72.266-72.141C525.43,29.671,555.152,0,597.693,0
			c42.526,0,72.265,29.671,72.265,72.117C669.958,114.602,640.222,144.258,597.693,144.258z M597.693,5.053
			c-40.229,0-67.229,26.975-67.229,67.064c0,40.111,27,67.088,67.229,67.088c40.2,0,67.199-26.977,67.199-67.088
			C664.895,32.026,637.896,5.053,597.693,5.053z M597.693,127.812c-31.137,0-51.26-21.852-51.26-55.695
			c0-33.819,20.123-55.646,51.26-55.646c31.109,0,51.21,21.825,51.21,55.646C648.903,105.963,628.805,127.812,597.693,127.812z
			 M597.693,21.497c-34.062,0-46.195,26.165-46.195,50.62c0,24.492,12.134,50.644,46.195,50.644
			c34.064,0,46.185-26.147,46.185-50.644C643.878,47.662,631.76,21.497,597.693,21.497z"/>
	</g>
	<g>
		<path fill="#5D5D5D" d="M767.389,79.7c16.816-4.106,34.066-18.842,34.066-35.282c0-30.026-19.416-39.213-48.896-39.213h-45.877
			v133.852h20.205V19.952h25.471c19.18,0,29.082,8.965,29.082,24.466c0,22.604-39.136,24.837-39.136,24.837l39.627,69.802h20.634
			L767.389,79.7z"/>
		<path fill="#5D5D5D" d="M802.564,141.561h-20.634c-0.878,0-1.727-0.492-2.165-1.272l-39.621-69.771
			c-0.438-0.769-0.438-1.699-0.061-2.466c0.44-0.766,1.21-1.261,2.083-1.3c0.386-0.03,36.761-2.37,36.761-22.332
			c0-18.143-14.44-21.962-26.57-21.962h-22.966v116.6c0,1.383-1.134,2.504-2.505,2.504h-20.205c-1.41,0-2.551-1.121-2.551-2.504
			V5.205c0-1.411,1.139-2.507,2.551-2.507h45.877c22.086,0,51.412,4.299,51.412,41.72c0,16.756-16.415,31.545-32.723,36.814
			l33.516,56.535c0.44,0.767,0.44,1.75,0,2.545C804.304,141.066,803.479,141.561,802.564,141.561z M783.41,136.533h14.746
			l-32.931-55.544c-0.384-0.688-0.438-1.534-0.137-2.274c0.314-0.736,0.957-1.271,1.723-1.478
			c15.477-3.768,32.12-17.39,32.12-32.819c0-25.384-14.294-36.681-46.373-36.681h-43.373v128.796h15.187V19.952
			c0-1.413,1.122-2.548,2.517-2.548h25.471c20.098,0,31.599,9.855,31.599,27.014c0,20.385-27.106,25.698-37.515,26.987
			L783.41,136.533z"/>
	</g>
	<g>
		<path fill="#5D5D5D" d="M888.396,21.648v117.406H869.2V21.648h-41.227V5.205h101.662v16.443H888.396z"/>
		<path fill="#5D5D5D" d="M888.396,141.561H869.2c-1.396,0-2.547-1.121-2.547-2.504V24.182h-38.68c-1.411,0-2.531-1.137-2.531-2.532
			V5.205c0-1.411,1.12-2.507,2.531-2.507h101.662c1.396,0,2.545,1.096,2.545,2.507v16.443c0,1.396-1.148,2.532-2.545,2.532h-38.721
			v114.874C890.916,140.438,889.795,141.561,888.396,141.561z M871.748,136.533h14.131V21.648c0-1.385,1.151-2.52,2.518-2.52h38.693
			V7.737H830.48V19.13h38.72c1.412,0,2.549,1.135,2.549,2.52L871.748,136.533L871.748,136.533z"/>
	</g>
</g>
</svg>
